<svg width="25" height="22" viewBox="0 0 25 22" fill="none" xmlns="http://www.w3.org/2000/svg">
<path d="M0 2.37177H21.1834C23.2912 2.37177 25 4.08054 25 6.1884C25 14.6199 18.165 21.4549 9.73349 21.4549H5C2.23858 21.4549 0 19.2163 0 16.4549V2.37177Z" fill="url(#paint0_linear_7464_5888)" fill-opacity="0.2"/>
<path d="M8.90847 10.1911C8.19719 10.1911 7.51505 9.90853 7.0121 9.40558C6.50916 8.90264 6.2266 8.22049 6.2266 7.50922C6.2266 6.79794 6.50916 6.1158 7.0121 5.61285C7.51505 5.10991 8.19719 4.82735 8.90847 4.82735C9.61974 4.82735 10.3019 5.10991 10.8048 5.61285C11.3078 6.1158 11.5903 6.79794 11.5903 7.50922C11.5903 7.86141 11.521 8.21014 11.3862 8.53552C11.2514 8.8609 11.0539 9.15655 10.8048 9.40558C10.5558 9.65462 10.2602 9.85216 9.93477 9.98694C9.60939 10.1217 9.26065 10.1911 8.90847 10.1911ZM8.90847 0C6.9169 0 5.0069 0.791147 3.59865 2.1994C2.1904 3.60765 1.39925 5.51765 1.39925 7.50922C1.39925 13.1411 8.90847 21.4549 8.90847 21.4549C8.90847 21.4549 16.4177 13.1411 16.4177 7.50922C16.4177 5.51765 15.6265 3.60765 14.2183 2.1994C12.81 0.791147 10.9 0 8.90847 0Z" fill="#277CD8"/>
<defs>
<linearGradient id="paint0_linear_7464_5888" x1="0" y1="10.7275" x2="25" y2="10.7275" gradientUnits="userSpaceOnUse">
<stop stop-color="#154273"/>
<stop offset="1" stop-color="#287DD9"/>
</linearGradient>
</defs>
</svg>
