<svg width="25" height="26" viewBox="0 0 25 26" fill="none" xmlns="http://www.w3.org/2000/svg">
<path d="M0 6.6432H21.1834C23.2912 6.6432 25 8.35196 25 10.4598C25 18.8913 18.165 25.7263 9.73349 25.7263H5C2.23858 25.7263 0 23.4878 0 20.7263V6.6432Z" fill="url(#paint0_linear_7464_5882)" fill-opacity="0.2"/>
<path d="M1.39925 19.4435C1.39925 20.554 2.30019 21.4549 3.41065 21.4549H18.1609C19.2714 21.4549 20.1723 20.554 20.1723 19.4435V8.04559H1.39925V19.4435ZM14.8086 11.2303C14.8086 10.9537 15.0349 10.7275 15.3114 10.7275H16.9876C17.2642 10.7275 17.4904 10.9537 17.4904 11.2303V12.9065C17.4904 13.183 17.2642 13.4093 16.9876 13.4093H15.3114C15.0349 13.4093 14.8086 13.183 14.8086 12.9065V11.2303ZM14.8086 16.594C14.8086 16.3175 15.0349 16.0912 15.3114 16.0912H16.9876C17.2642 16.0912 17.4904 16.3175 17.4904 16.594V18.2702C17.4904 18.5468 17.2642 18.773 16.9876 18.773H15.3114C15.0349 18.773 14.8086 18.5468 14.8086 18.2702V16.594ZM9.44484 11.2303C9.44484 10.9537 9.67112 10.7275 9.94769 10.7275H11.6239C11.9004 10.7275 12.1267 10.9537 12.1267 11.2303V12.9065C12.1267 13.183 11.9004 13.4093 11.6239 13.4093H9.94769C9.67112 13.4093 9.44484 13.183 9.44484 12.9065V11.2303ZM9.44484 16.594C9.44484 16.3175 9.67112 16.0912 9.94769 16.0912H11.6239C11.9004 16.0912 12.1267 16.3175 12.1267 16.594V18.2702C12.1267 18.5468 11.9004 18.773 11.6239 18.773H9.94769C9.67112 18.773 9.44484 18.5468 9.44484 18.2702V16.594ZM4.08111 11.2303C4.08111 10.9537 4.30739 10.7275 4.58396 10.7275H6.26013C6.53669 10.7275 6.76298 10.9537 6.76298 11.2303V12.9065C6.76298 13.183 6.53669 13.4093 6.26013 13.4093H4.58396C4.30739 13.4093 4.08111 13.183 4.08111 12.9065V11.2303ZM4.08111 16.594C4.08111 16.3175 4.30739 16.0912 4.58396 16.0912H6.26013C6.53669 16.0912 6.76298 16.3175 6.76298 16.594V18.2702C6.76298 18.5468 6.53669 18.773 6.26013 18.773H4.58396C4.30739 18.773 4.08111 18.5468 4.08111 18.2702V16.594ZM18.1609 2.68186H16.1495V0.670466C16.1495 0.30171 15.8478 0 15.479 0H14.1381C13.7693 0 13.4676 0.30171 13.4676 0.670466V2.68186H8.10391V0.670466C8.10391 0.30171 7.8022 0 7.43344 0H6.09251C5.72375 0 5.42204 0.30171 5.42204 0.670466V2.68186H3.41065C2.30019 2.68186 1.39925 3.5828 1.39925 4.69326V6.70466H20.1723V4.69326C20.1723 3.5828 19.2714 2.68186 18.1609 2.68186Z" fill="#277CD8"/>
<defs>
<linearGradient id="paint0_linear_7464_5882" x1="0" y1="12.8632" x2="25" y2="12.8632" gradientUnits="userSpaceOnUse">
<stop stop-color="#154273"/>
<stop offset="1" stop-color="#287DD9"/>
</linearGradient>
</defs>
</svg>
