<svg width="144" height="144" viewBox="0 0 144 144" fill="none" xmlns="http://www.w3.org/2000/svg">
<path d="M0.00512695 144H129.46L80.8565 0.00976562H0.00512695V144Z" fill="#FFED00"/>
<path d="M37.4822 37.8354C37.8285 37.1465 38.1133 36.3268 38.1133 36.0073C38.1133 35.6879 38.3289 35.43 38.5944 35.4262C38.86 35.4262 39.4642 35.684 39.9414 36.0035C40.4187 36.3229 40.9498 37.1465 41.1268 37.8354C41.3 38.5244 41.3039 39.6944 41.1345 40.4333C40.9652 41.1722 40.1724 42.7194 39.3757 43.8663C38.5752 45.0094 36.6201 47.0877 35.0345 48.4847C33.445 49.878 31.4129 51.7984 30.5123 52.7491C29.6117 53.6997 28.3148 55.5201 27.6336 56.7902C26.6252 58.6683 26.3943 59.5458 26.3751 63.8602L25.2205 62.9673C24.5855 62.4785 23.6618 61.3201 23.1692 60.3964C22.4687 59.084 22.2994 58.245 22.3994 56.5708C22.4995 54.8581 22.8189 53.9806 23.9697 52.241C24.801 50.9825 27.1679 48.5271 29.5502 46.4565C31.8247 44.4783 34.3994 42.0113 35.2692 40.9721C36.139 39.9368 37.1358 38.5244 37.4822 37.8354Z" fill="#373736"/>
<path fill-rule="evenodd" clip-rule="evenodd" d="M36.5886 26.2852C36.7502 26.7624 36.9003 27.7631 36.9196 28.502C36.9427 29.241 36.7849 30.4995 36.5732 31.2923C36.3654 32.0851 35.7149 33.2821 35.1338 33.9518C34.5527 34.6176 32.9516 36.0146 31.5738 37.0499C30.196 38.0891 28.4218 39.794 27.629 40.8409C26.8362 41.8877 26.1819 42.9577 26.1781 43.2232C26.1755 43.5439 26.0498 43.5119 25.8009 43.127C25.5969 42.8076 25.4276 41.3374 25.4314 39.8556C25.4314 38.0737 25.6701 36.642 26.1357 35.6221C26.5206 34.7754 27.2942 33.5322 27.8561 32.8587C28.418 32.1852 30.0883 30.8459 31.5738 29.876C33.0556 28.91 34.722 27.5091 35.2801 26.7663C36.2653 25.4462 36.2999 25.4346 36.5886 26.2852ZM43.443 33.5053C43.6893 33.5053 44.3128 34.0672 44.8285 34.7561C45.3442 35.445 46.3641 37.304 47.0953 38.8935C47.8227 40.4791 48.8849 43.1655 49.4507 44.8589C50.0164 46.5523 51.4019 51.6595 52.5296 56.2125C53.6611 60.7616 54.9696 66.2191 55.4468 68.3358C56.0895 71.2031 56.8747 73.2622 58.5257 76.4181C59.7419 78.7465 61.1043 81.9063 61.5507 83.4419C62.0895 85.2893 62.7977 86.721 63.6521 87.6755C64.3602 88.4683 65.6149 89.4458 66.4423 89.8423C67.5161 90.3618 68.4359 90.5119 69.6752 90.3657C70.6258 90.2541 72.0998 89.8153 72.9465 89.3881C73.7932 88.9609 74.9516 88.1181 75.5212 87.5177C76.087 86.9173 76.7374 85.9474 76.9644 85.3663C77.1877 84.7851 77.3685 83.8306 77.3647 83.2495C77.3608 82.6683 77.0145 81.456 76.595 80.5554C75.9523 79.1776 75.4558 78.7465 73.4276 77.8113C72.0305 77.1686 70.3641 76.0024 69.4481 75.021C68.5821 74.0973 67.7624 72.7772 67.62 72.0883C67.4622 71.3032 67.5469 70.6143 67.8471 70.2448C68.1126 69.9177 68.586 69.6521 68.9054 69.6521C69.2249 69.6559 69.9138 69.9831 70.4449 70.3833C70.9721 70.7798 71.7957 71.307 72.273 71.5495C72.9503 71.8959 73.5738 71.8574 75.1594 71.3686C77.0222 70.7952 77.28 70.7952 79.6816 71.9921L79.6931 94.5069L77.4725 94.1258C76.2524 93.9142 73.7701 93.741 71.9574 93.741C69.0594 93.7371 68.4859 93.8564 67.2698 94.6993C66.5077 95.2266 65.5263 96.181 65.0876 96.8161C64.6489 97.4511 64.0485 98.6634 63.7521 99.5101C63.4596 100.357 63.0979 101.742 62.6861 104.129L65.3147 105.533C66.7618 106.307 69.3711 107.388 71.1184 107.939C72.8657 108.489 75.5058 109.07 79.6893 109.517L79.6816 116.637L78.2383 116.414C77.4455 116.29 76.0138 115.944 75.0632 115.648C74.1126 115.351 72.2922 114.485 71.0222 113.719C69.7521 112.957 67.9317 111.676 66.9811 110.879C66.0305 110.082 64.518 108.497 63.6251 107.358C62.7322 106.215 61.824 104.679 61.6046 103.936C61.3852 103.193 61.0158 100.164 60.781 97.2009C60.4808 93.3946 60.1152 91.1932 59.5263 89.696C59.0684 88.5299 57.7136 85.8473 56.5167 83.7306C55.3198 81.6138 53.7996 78.3232 53.1338 76.4181C52.468 74.513 50.9978 68.3628 49.8625 62.7553C48.7271 57.1439 47.1723 49.7852 46.4064 46.3984C45.6405 43.0115 44.6514 38.9396 44.2127 37.354C43.7701 35.7645 43.316 34.252 43.2044 33.9864C43.0927 33.7208 43.2005 33.5053 43.443 33.5053ZM58.899 39.7132C60.6886 39.6709 62.4436 39.8749 63.5174 40.252C64.468 40.583 65.7496 41.322 66.3576 41.8954C66.9657 42.465 67.8163 43.7159 68.2435 44.6665C68.763 45.8288 69.017 47.2182 69.017 48.9C69.017 50.2779 68.9054 51.6172 68.7707 51.8827C68.6206 52.1714 68.2704 52.2484 67.8894 52.0752C67.543 51.9174 67.112 51.4825 66.9272 51.113C66.7348 50.7166 66.7541 50.1239 66.9811 49.6698C67.2813 49.0694 67.2197 48.8269 66.6925 48.5652C66.323 48.3766 64.8067 48.0148 63.3249 47.7608C61.8432 47.503 60.1999 47.0642 59.6687 46.7832C59.1415 46.5023 58.2602 45.7826 57.7175 45.1822C57.171 44.5818 56.0895 43.1809 53.8958 40.0481L54.9542 39.9134C55.5353 39.8402 57.3134 39.7479 58.899 39.7132ZM59.2839 43.8967C59.2839 44.3201 59.7611 45.0206 60.3423 45.4478C60.9234 45.8788 61.951 46.2252 62.6245 46.2175C63.298 46.2136 64.1178 45.9481 64.4526 45.6286C64.7836 45.3092 65.0568 44.705 65.0568 44.2816C65.0568 43.6389 64.8836 43.5542 63.9984 43.7582C63.4173 43.8929 62.5937 44.0237 62.1703 44.0468C61.6431 44.0776 61.4006 43.8467 61.4006 43.3194C61.4006 42.7614 61.6893 42.5228 62.459 42.4535C63.1017 42.3958 63.5174 42.1302 63.5174 41.78C63.5174 41.4028 63.1479 41.2065 62.459 41.2142C61.8779 41.2219 60.9234 41.653 60.3423 42.1764C59.7611 42.6998 59.2839 43.4734 59.2839 43.8967ZM42.4808 47.553C42.7156 47.9763 42.9119 49.7968 42.9157 51.5941C42.9234 53.8494 42.7194 55.3735 42.2537 56.5012C41.8843 57.4018 40.8221 59.3068 39.8984 60.7347C38.9709 62.1626 37.6046 64.5449 36.8618 66.0266C36.1191 67.5084 35.1184 69.933 34.6373 71.4148C33.8445 73.8702 33.7714 74.7708 33.8253 81.6138C33.8561 85.7819 33.706 89.7191 33.4904 90.4657C33.2711 91.2085 32.7092 92.2053 32.2396 92.6903C31.7663 93.1714 31.2929 93.5601 31.189 93.5562C31.0851 93.5485 30.9734 92.3747 30.9504 90.9468C30.9119 88.9725 30.5578 87.4214 29.4686 84.5003C28.4103 81.66 27.9831 79.8434 27.8407 77.5727C27.7214 75.6291 27.8599 73.5008 28.214 71.7997C28.5257 70.3179 29.4609 67.6354 30.2999 65.8342C31.2967 63.6905 32.9516 61.1696 35.103 58.5217C36.908 56.2972 39.1094 53.3568 39.9946 51.979C40.8759 50.6011 41.7034 48.8692 41.8304 48.1303C42.0382 46.9026 42.096 46.8525 42.4808 47.553ZM43.9125 61.4082L44.8593 62.9477C45.375 63.7944 45.9985 65.4378 46.2409 66.6039C46.5026 67.8663 46.5911 70.2717 46.4641 72.5694C46.341 74.6862 45.8868 78.1923 45.452 80.363C44.9786 82.7222 44.6591 85.8127 44.6553 88.0603C44.6553 90.2271 44.9093 92.7865 45.2557 94.122C45.5867 95.3921 46.1678 97.124 46.5488 97.9707C46.926 98.8174 48.477 100.98 49.9933 102.782C51.5058 104.583 53.2685 107.092 53.9074 108.362C54.5424 109.632 55.062 111.233 55.0504 113.173L52.9837 111.537C51.8484 110.637 49.4853 108.862 47.7342 107.592C45.9831 106.322 43.8086 104.417 42.9042 103.359C41.9959 102.3 40.7297 100.307 40.0908 98.9328C39.3711 97.3857 38.7746 95.2573 38.5244 93.3523C38.2589 91.3471 38.2396 89.1995 38.4706 87.1944C38.663 85.501 39.1094 82.9878 39.4558 81.6138C39.8022 80.2398 40.6681 77.2956 41.3801 75.071C42.0921 72.8465 42.9503 69.5597 43.2852 67.7585C43.6239 65.9574 43.901 63.7944 43.9048 62.9477L43.9125 61.4082Z" fill="#373736"/>
</svg>
